# xmcd
#
# Track frame offsets:
#	150
#	16761
#	36875
#	48022
#	64852
#	84005
#	100827
#	115607
#	129971
#	146714
#	162616
#	176065
#	189932
#	205061
#	219490
#	234829
#	251322
#	267008
#	280634
#	298617
#	312832
#	329766
#
# Disc length: 4650 seconds
#
# Revision: 17
# Processed by: cddbd v1.5.2PL0 Copyright (c) Steve Scherf et al.
# Submitted via: audiograbber 1.83.01
#
DISCID=29122816
DTITLE=Various Artist - NOW That's What I Call Music! 69 [Disc 1]
DYEAR=2008
DGENRE=Pop
TTITLE0=Duffy - Mercy
TTITLE1=Rihanna - Don't Stop The Music
TTITLE2=Basshunter featuring DJ Mental Theo's Bazzheadz - Now You're Gone
TTITLE3=Girls Aloud - Call The Shots
TTITLE4=Nickelback - Rockstar
TTITLE5=OneRepublic - Stop And Stare
TTITLE6=David Jordan - Sun Goes Down
TTITLE7=Kelly Rowland - Work (Freemasons Radio Edit)
TTITLE8=Soulja Boy Tell 'em - Crank That (Soulja Boy)
TTITLE9=Britney Spears - Piece Of Me
TTITLE10=T2 featuring Jodie Aysha - Heartbroken
TTITLE11=H ''Two'' O featuring Platnum - What's It Gonna Be
TTITLE12=Taio Cruz - Come On Girl
TTITLE13=Kylie Minogue - Wow
TTITLE14=Robyn - Be Mine!
TTITLE15=Cascada - What Hurts The Most
TTITLE16=Booty Luv - Some Kinda Rush
TTITLE17=Samim - Heater
TTITLE18=Mary J. Blige - Just Fine
TTITLE19=Jay Sean - Ride It
TTITLE20=Shayne Ward - Breathless
TTITLE21=Leon Jackson - When You Believe
EXTD=
EXTT0=
EXTT1=
EXTT2=
EXTT3=
EXTT4=
EXTT5=
EXTT6=
EXTT7=
EXTT8=
EXTT9=
EXTT10=
EXTT11=
EXTT12=
EXTT13=
EXTT14=
EXTT15=
EXTT16=
EXTT17=
EXTT18=
EXTT19=
EXTT20=
EXTT21=
PLAYORDER=
